# xmcd CD database file generated by OrangeCD 5.2
#
# Track frame offsets:
#	150
#	16717
#	33962
#	49617
#	68870
#	85835
#	105137
#	118140
#	133660
#	150577
#	169012
#	187792
#	201145
#
# Disc length: 2910 seconds
#
# Revision: 1
# Processed by: cddbd v1.5.1PL2 Copyright (c) Steve Scherf et al.
# Submitted via: OrangeCD 5.2
#
DISCID=960b5c0d
DTITLE=Alison Moyet - Essex
DYEAR=1994
DGENRE=Pop
TTITLE0=Falling
TTITLE1=And I Know
TTITLE2=Whispering Your Name
TTITLE3=Getting Into Something
TTITLE4=So Am I
TTITLE5=Satellite
TTITLE6=Ode To Boy
TTITLE7=Dorothy
TTITLE8=Another Living Day
TTITLE9=Boys Own
TTITLE10=Take Of Me
TTITLE11=Ode To Boy II
TTITLE12=Whispering Your Name  (single mix)
EXTD=1994 Sony Music - Columbia CK 57448
EXTT0=
EXTT1=
EXTT2=
EXTT3=
EXTT4=
EXTT5=
EXTT6=
EXTT7=
EXTT8=
EXTT9=
EXTT10=
EXTT11=
EXTT12=
PLAYORDER=
